<svg id="Layer_1" data-name="Layer 1" xmlns="http://www.w3.org/2000/svg" viewBox="0 0 532 532"><defs><style>.cls-1{fill:#084c81;}</style></defs><title>icon</title><path class="cls-1" d="M64,239.55a147.28,147.28,0,0,1,33.75-14.33c11.1-2.78,28.2-5.09,43.92-5.55h5.09c47.62,0,77.21,18.5,89.23,35.6,8.78,12,9.71,22.19,9.71,37,0,0,.92,23.58.92,50.4,0,23.58-.46,49.47-3.7,64.27-5.09,23.12-17.57,46.24-36.07,58.72-24,15.72-49,24-80.91,24-13.41,0-31.44,0-58.72-9.71-9.25-3.7-19.88-9.71-26.82-16.65-5.09-4.62-12-13.87-16.18-23.12s-6.47-19.88-6.47-32.83c0-13.87,3.7-24.51,7.4-34.21,11.56-29.59,38.38-38.38,45.31-40.69a132.27,132.27,0,0,1,29.59-7.4c4.62-1.85,9.71-1.39,23.58-2.77a144.28,144.28,0,0,0,32.83-4.62c7.86-1.85,13.87-4.63,18-7.86s6-5.09,6-10.64v-1.85a30.43,30.43,0,0,0-3.24-13.87c-6-9.71-18.49-12.95-36.53-12.95H137c-13.41,0-23.58,2.78-31,8.32-7.86,5.55-12.95,11.1-13.41,21.27H25.12c1.39-11.09,5.09-24,12-34.68S53.32,245.56,64,239.55Zm89.23,128.07c-5.09.93-10.17,1.85-15.26,2.31-5.55.46-11.1,1.39-16.18,2.31a139.57,139.57,0,0,0-14.8,3.7c-5.09,1.85-9.25,3.7-12.95,6.48a31.1,31.1,0,0,0-8.78,10.17c-2.31,4.16-3.24,9.25-3.24,15.72,0,6,.93,11.1,3.24,15.26A25.6,25.6,0,0,0,94,433.28a42.52,42.52,0,0,0,13.41,5.09,86.57,86.57,0,0,0,15.72,1.39q20.11,0,30.51-6.93c7.4-4.16,12.95-9.71,16.18-15.72a49.27,49.27,0,0,0,6.47-18.49,114.92,114.92,0,0,0,1.39-15.26V357.91a26.61,26.61,0,0,1-10.63,6A120.68,120.68,0,0,1,153.19,367.62Z"/><path class="cls-1" d="M505,292.26c-6.49-16.65-14.32-30.52-24.06-41.14-10.16-10.65-21.24-18.49-33.27-23.6-12.49-5.08-25-7.83-37.47-7.83a117.58,117.58,0,0,0-45.3,8.78c-11.57,5.08-25.9,13.87-34.68,22.65V166a41.81,41.81,0,0,0-3.8-18.55,50.29,50.29,0,0,0-8.23-12,31.62,31.62,0,0,0-8.72-7,7.62,7.62,0,0,1-3.47-1.64,8,8,0,0,1-2-4.49c-3.84-20.78-9.7-24.19-24-31.14s-19.14-48.91-19.14-48.91v81.2s0,34,0,76.54c0,67.72.13,157,.43,165.28,1.41,23.11,8.82,52.25,13.44,61.49,6.46,14.32,17.57,31.44,35.11,42.52,25.9,16.19,57.82,20.36,75.85,20.36,27.27,0,49.46-8.33,62-13.41,12-5.08,23.11-12.95,33.27-24.06,9.74-10.62,17.57-24,24.06-40.68,6-16.65,9.24-36.52,9.24-59.63S511,308.91,505,292.26Zm-60.58,60.12a101.21,101.21,0,0,1-2.79,25.44,86.27,86.27,0,0,1-10.62,25.86c-5.08,7.41-11.11,13.41-18.49,17.57q-10.42,6.93-26.35,6.95a49.9,49.9,0,0,1-26.36-6.95c-7.41-4.16-13.41-10.16-18.49-17.57a87.16,87.16,0,0,1-10.65-25.86A107.4,107.4,0,0,1,328,352.37a91.53,91.53,0,0,1,2.75-21.27,84.89,84.89,0,0,1,10.65-25.44,62.09,62.09,0,0,1,18.49-18,54.28,54.28,0,0,1,26.36-6.46c10.62,0,19.41,2.29,26.35,6.46a62.47,62.47,0,0,1,18.49,18,84,84,0,0,1,10.62,25.44c1.87,8.33,2.79,12.95,2.79,18Z"/><path class="cls-1" d="M246.6,42.31v81.2s0,34,0,76.54c0,9.18,0,37.6,0,47.31-17.91-23.08-27.62-30.26-57-37.42-14.84-3.62-34.69-2-34.69-2-2.59-57.79,45.68-80.16,46.6-81a8,8,0,0,0,2-4.49c3.84-20.78,9.7-24.19,24-31.14S246.6,42.31,246.6,42.31Z"/></svg>