<svg id="Layer_1" data-name="Layer 1" xmlns="http://www.w3.org/2000/svg" viewBox="0 0 932.95 195.02"><defs><style>.cls-1{fill:#fff;}.cls-2{fill:#084c81;}.cls-3{fill:none;}</style></defs><title>logo putih</title><path class="cls-1" d="M88.21,97.67V146.2s-8.6,0-13.82-2.4c-3.39-1.55-7.34-4.66-7.48-13.26v-29.9a20.2,20.2,0,0,0-2.5-10.37,17.8,17.8,0,0,0-1.16-1.76c-2.68-3.53-6.78-5.08-12.7-5.08-5.22,0-9.59,1.69-11.57,4.94a17.64,17.64,0,0,0-2.34,5.48,32.09,32.09,0,0,0-.76,7.63V146.2H14.3V100.8c0,4.39,0-3.25,0-4.06a29.08,29.08,0,0,1,1.17-7.53h0a35.08,35.08,0,0,1,7.33-12.55A30.41,30.41,0,0,1,33,69.32a48.25,48.25,0,0,1,18.3-4.08.08.08,0,0,1,.07,0,71.54,71.54,0,0,1,7.38.54l.11,0a42.62,42.62,0,0,1,16,5.64c5.36,3.39,8.75,8.75,10.72,13a17.53,17.53,0,0,1,.86,2.15A33.62,33.62,0,0,1,88.21,97Q88.21,97.33,88.21,97.67Z"/><path class="cls-1" d="M169.71,115.31V66.78s-8.6,0-13.82,2.4c-3.39,1.55-7.34,4.66-7.48,13.26v29.9a20.2,20.2,0,0,1-2.5,10.37,17.8,17.8,0,0,1-1.16,1.76c-2.68,3.53-6.78,5.08-12.7,5.08-5.22,0-9.59-1.69-11.57-4.94a17.64,17.64,0,0,1-2.34-5.48,32.09,32.09,0,0,1-.76-7.63V66.78H95.8v45.4c0-4.39,0,3.25,0,4.06A29.08,29.08,0,0,0,97,123.77h0a35.08,35.08,0,0,0,7.33,12.55,30.41,30.41,0,0,0,10.16,7.34,48.25,48.25,0,0,0,18.3,4.08.08.08,0,0,0,.07,0,71.54,71.54,0,0,0,7.38-.54l.11,0a42.62,42.62,0,0,0,16-5.64c5.36-3.39,8.75-8.75,10.72-13a17.53,17.53,0,0,0,.86-2.15A33.62,33.62,0,0,0,169.71,116Q169.71,115.66,169.71,115.31Z"/><path class="cls-1" d="M835.71,115.31V66.78s-8.6,0-13.82,2.4c-3.39,1.55-7.34,4.66-7.48,13.26v29.9a20.2,20.2,0,0,1-2.5,10.37,17.8,17.8,0,0,1-1.16,1.76c-2.68,3.53-6.78,5.08-12.7,5.08-5.22,0-9.59-1.69-11.57-4.94a17.64,17.64,0,0,1-2.34-5.48,32.09,32.09,0,0,1-.76-7.63V66.78H761.8v45.4c0-4.39,0,3.25,0,4.06a29.08,29.08,0,0,0,1.17,7.53h0a35.08,35.08,0,0,0,7.33,12.55,30.41,30.41,0,0,0,10.16,7.34,48.25,48.25,0,0,0,18.3,4.08.08.08,0,0,0,.07,0,71.54,71.54,0,0,0,7.38-.54l.11,0a42.62,42.62,0,0,0,16-5.64c5.36-3.39,8.75-8.75,10.72-13a17.53,17.53,0,0,0,.86-2.15A33.62,33.62,0,0,0,835.71,116Q835.71,115.66,835.71,115.31Z"/><path class="cls-2" d="M264.79,71.44a44.93,44.93,0,0,1,10.3-4.37,69.12,69.12,0,0,1,13.4-1.69H290c14.53,0,23.56,5.64,27.22,10.86,2.68,3.67,3,6.77,3,11.28,0,0,.28,7.19.28,15.37,0,7.19-.14,15.09-1.13,19.61-1.55,7.05-5.36,14.11-11,17.91a42.83,42.83,0,0,1-24.68,7.33,47.87,47.87,0,0,1-17.91-3,25.74,25.74,0,0,1-8.18-5.08,22.78,22.78,0,0,1-6.91-17.07,27.85,27.85,0,0,1,2.26-10.44c3.53-9,11.71-11.71,13.82-12.41a40.35,40.35,0,0,1,9-2.26c1.41-.56,3-.42,7.19-.85a44,44,0,0,0,10-1.41,14.33,14.33,0,0,0,5.5-2.4c1.27-1,1.83-1.55,1.83-3.24v-.56a9.28,9.28,0,0,0-1-4.23c-1.83-3-5.64-3.95-11.14-3.95h-1.13c-4.09,0-7.19.85-9.45,2.54s-3.95,3.39-4.09,6.49H252.94a25.7,25.7,0,0,1,3.67-10.58A24.3,24.3,0,0,1,264.79,71.44ZM292,110.51c-1.55.28-3.1.56-4.65.71s-3.39.42-4.94.7a42.58,42.58,0,0,0-4.51,1.13,14.79,14.79,0,0,0-3.95,2,9.49,9.49,0,0,0-2.68,3.1,9.68,9.68,0,0,0-1,4.8,9.47,9.47,0,0,0,1,4.66,7.81,7.81,0,0,0,2.68,3,13,13,0,0,0,4.09,1.55,26.41,26.41,0,0,0,4.8.42q6.14,0,9.31-2.11a12.46,12.46,0,0,0,4.94-4.8,15,15,0,0,0,2-5.64,35.06,35.06,0,0,0,.42-4.66v-7.76a8.12,8.12,0,0,1-3.24,1.83A36.82,36.82,0,0,1,292,110.51Z"/><path class="cls-1" d="M244.51,122.64a23.92,23.92,0,0,1-2,10,23.63,23.63,0,0,1-4.94,7,25.65,25.65,0,0,1-8.18,5.08,47.87,47.87,0,0,1-17.91,3,42.84,42.84,0,0,1-24.68-7.33c-5.64-3.81-9.45-10.87-11-17.92a1.56,1.56,0,0,1,0-.21,37.71,37.71,0,0,1-.58-4.08h20.35a7.1,7.1,0,0,0,.89,3.28,14.07,14.07,0,0,0,1.67,4.11,12.43,12.43,0,0,0,4.94,4.8c2.11,1.41,5.22,2.12,9.31,2.12a26.51,26.51,0,0,0,4.79-.43,12.81,12.81,0,0,0,4.09-1.55,7.7,7.7,0,0,0,2.68-3,9.42,9.42,0,0,0,1-4.66,9.62,9.62,0,0,0-1-4.79,9.34,9.34,0,0,0-2.68-3.1,14.9,14.9,0,0,0-4-2,45,45,0,0,0-4.51-1.13,30,30,0,0,0-3.76-.58c-1.55-.14-11.26-1.06-12.81-1.34a46.44,46.44,0,0,1-7.42-1.67l-.07,0a20.11,20.11,0,0,1-13.77-19.77c0-.66,0-1,0-1,0-4.51.28-7.62,3-11.28,3.67-5.22,12.69-10.86,27.22-10.86h1.55a68.73,68.73,0,0,1,13.4,1.69,44.72,44.72,0,0,1,10.3,4.37,24.2,24.2,0,0,1,8.18,7.9,22.94,22.94,0,0,1,2.82,6.4,36.37,36.37,0,0,1,.6,4.18H221.66a7.08,7.08,0,0,0-.88-3.24,10.22,10.22,0,0,0-3.21-3.25c-2.26-1.69-5.36-2.54-9.45-2.54H207c-5.5,0-9.31,1-11.15,4a9.34,9.34,0,0,0-1,4.23v.57c0,1.69.56,2.25,1.83,3.24a14.34,14.34,0,0,0,5.5,2.4,28.94,28.94,0,0,0,8.12,1.31c4.23.42,5.3.57,9.09,1,.7.1,1.4.21,2.09.33a39.6,39.6,0,0,1,6.94,1.92c2.11.71,10.29,3.39,13.82,12.42l.19.51A26.93,26.93,0,0,1,244.51,122.64Z"/><path class="cls-1" d="M338.64,37.06a2.33,2.33,0,0,0,1.06.5A7.9,7.9,0,0,0,338.64,37.06Z"/><path class="cls-1" d="M420.5,71.44a45,45,0,0,1,10.3-4.37,69.13,69.13,0,0,1,13.4-1.69h1.55c14.53,0,23.55,5.64,27.22,10.86,2.68,3.67,3,6.77,3,11.28,0,0,.28,7.19.28,15.37,0,7.19-.14,15.09-1.13,19.61-1.55,7.05-5.36,14.11-11,17.91a42.83,42.83,0,0,1-24.68,7.33,47.86,47.86,0,0,1-17.91-3,25.76,25.76,0,0,1-8.18-5.08,22.79,22.79,0,0,1-6.91-17.07,27.83,27.83,0,0,1,2.26-10.44c3.53-9,11.71-11.71,13.82-12.41a40.37,40.37,0,0,1,9-2.26c1.41-.56,3-.42,7.19-.85a44,44,0,0,0,10-1.41,14.33,14.33,0,0,0,5.5-2.4c1.27-1,1.83-1.55,1.83-3.24v-.56a9.3,9.3,0,0,0-1-4.23c-1.83-3-5.64-3.95-11.14-3.95h-1.13c-4.09,0-7.19.85-9.45,2.54s-3.95,3.39-4.09,6.49H408.65a25.68,25.68,0,0,1,3.67-10.58A24.29,24.29,0,0,1,420.5,71.44Zm27.22,39.07c-1.55.28-3.1.56-4.66.71s-3.38.42-4.94.7a42.51,42.51,0,0,0-4.51,1.13,14.79,14.79,0,0,0-3.95,2,9.49,9.49,0,0,0-2.68,3.1,9.68,9.68,0,0,0-1,4.8,9.46,9.46,0,0,0,1,4.66,7.81,7.81,0,0,0,2.68,3,13,13,0,0,0,4.09,1.55,26.41,26.41,0,0,0,4.8.42q6.14,0,9.31-2.11a12.46,12.46,0,0,0,4.94-4.8,15.06,15.06,0,0,0,2-5.64,35,35,0,0,0,.42-4.66v-7.76a8.12,8.12,0,0,1-3.24,1.83A36.8,36.8,0,0,1,447.72,110.51Z"/><path class="cls-1" d="M503.85,52.26V146.2H482V36h3.67c5.08,0,11,.85,14.53,4.79C503.71,44.5,503.85,48.17,503.85,52.26Z"/><path class="cls-1" d="M532.76,49.58v4.51H510.9V36.18h8c3.53,0,8.46,1.13,10.72,3.67S532.76,46.05,532.76,49.58Zm0,33.71V146.2H510.9V66.64h7.33c5.08,0,8,1.27,11.14,5.08C532.62,75.81,532.76,78.92,532.76,83.29Z"/><path class="cls-1" d="M646.44,68.62c6.49-2.82,15-2.82,21.16-2.82h.85a22.73,22.73,0,0,1,5.22.56v20a20.41,20.41,0,0,0-3.53-.56c-1.41-.14-2.82-.28-4.09-.28a23.47,23.47,0,0,0-10,2,16.22,16.22,0,0,0-6.49,5.36,21,21,0,0,0-3.81,7.76,45.74,45.74,0,0,0-.85,10V146.2H623.45V100.78c0-7.76,2-16.64,9.59-23.84C637.83,72.29,644,69.61,646.44,68.62Z"/><path class="cls-1" d="M687.34,77.08a36.87,36.87,0,0,1,12.55-8.32,46.3,46.3,0,0,1,16.36-2.82,47.1,47.1,0,0,1,16.5,2.82,37.46,37.46,0,0,1,12.69,8.32,38.23,38.23,0,0,1,8,12.84,50.93,50.93,0,0,1,0,33.43,39,39,0,0,1-8,12.69,33.39,33.39,0,0,1-12.69,8.18,44.07,44.07,0,0,1-16.5,2.82,43.32,43.32,0,0,1-16.36-2.82A32.87,32.87,0,0,1,687.34,136a34.88,34.88,0,0,1-8-12.69,50.93,50.93,0,0,1,0-33.43A34.3,34.3,0,0,1,687.34,77.08Zm14.25,46.55a16.66,16.66,0,0,0,5.78,5.5,17.27,17.27,0,0,0,8.89,2.11,17.45,17.45,0,0,0,9-2.11,17.09,17.09,0,0,0,5.92-5.5,25.35,25.35,0,0,0,3-7.9,42.45,42.45,0,0,0,0-18.2,23,23,0,0,0-3-7.9A18.92,18.92,0,0,0,725.28,84a17.45,17.45,0,0,0-9-2.12A17.27,17.27,0,0,0,707.37,84a18.44,18.44,0,0,0-5.78,5.64,23,23,0,0,0-3,7.9,42.39,42.39,0,0,0,0,18.2A25.38,25.38,0,0,0,701.58,123.63Z"/><path class="cls-1" d="M841.49,177.09s0-69.54.14-73.49c.42-7.19,2.68-16.08,4.09-18.9,2-4.23,5.36-9.59,10.72-13,7.9-4.94,17.49-6.21,23.13-6.21a48.15,48.15,0,0,1,18.76,4.09,30.16,30.16,0,0,1,10.16,7.33,35.19,35.19,0,0,1,7.33,12.55c2,5.08,2.82,11.14,2.82,18.05s-.85,13.12-2.82,18.2a35.19,35.19,0,0,1-7.33,12.55,30.18,30.18,0,0,1-10.16,7.33,29,29,0,0,1-11.43,2.26,35.79,35.79,0,0,1-13.68-2.68,35.4,35.4,0,0,1-10.44-6.91v25.81c0,4.23-1.55,6.77-4,9.31s-5.22,3.67-10.72,3.67Zm55.15-77.44a26.58,26.58,0,0,0-3.24-7.9,17,17,0,0,0-5.64-5.36,15.78,15.78,0,0,0-8-2,16.16,16.16,0,0,0-8,2A17,17,0,0,0,866,91.75a26.54,26.54,0,0,0-3.24,7.9,32.4,32.4,0,0,0-.85,7.76,27.69,27.69,0,0,0,.85,6.49,25.68,25.68,0,0,0,3.24,7.76,17.48,17.48,0,0,0,5.64,5.5,16.16,16.16,0,0,0,8,2,15.78,15.78,0,0,0,8-2,17.47,17.47,0,0,0,5.64-5.5,25.71,25.71,0,0,0,3.24-7.76,24.73,24.73,0,0,0,.85-6.49A31.75,31.75,0,0,0,896.65,99.65Z"/><path class="cls-1" d="M617.84,110.27a62.77,62.77,0,0,0-.83-6.91c-.9-5.19-2.28-10-3.26-12-2-4.23-5.36-9.59-10.72-13-7.9-4.94-17.49-6.21-23.13-6.21a48.23,48.23,0,0,0-18.76,4.09A30.41,30.41,0,0,0,551,83.61a35.08,35.08,0,0,0-7.33,12.55c-2,5.08-2.82,11.15-2.82,18.06s.85,13.11,2.82,18.19A35.21,35.21,0,0,0,551,145a30.24,30.24,0,0,0,10.16,7.33,29,29,0,0,0,11.43,2.26,35.91,35.91,0,0,0,13.68-2.68,36.42,36.42,0,0,0,10-6.49,28.39,28.39,0,0,1-.56,3.52,21,21,0,0,1-3.81,7.76A16.2,16.2,0,0,1,585.4,162a23.42,23.42,0,0,1-10,2c-1.27,0-2.68-.14-4.09-.28a21.72,21.72,0,0,1-3.53-.57v20a22.88,22.88,0,0,0,5.22.56h.85c6.2,0,14.66,0,21.15-2.82,1-.4,2.62-1.1,4.54-2.1a37.83,37.83,0,0,0,8.86-6.22c7.14-6.74,9.32-15,9.57-22.37v-.07C617.95,131.78,617.91,112.31,617.84,110.27Zm-24.4,18a17.4,17.4,0,0,1-5.64,5.5,16.17,16.17,0,0,1-8,2,15.8,15.8,0,0,1-8-2,17.39,17.39,0,0,1-5.64-5.5,25.79,25.79,0,0,1-3.25-7.76,24.83,24.83,0,0,1-.84-6.48,32,32,0,0,1,.84-7.76,26.76,26.76,0,0,1,3.25-7.9,16.94,16.94,0,0,1,5.64-5.36,15.8,15.8,0,0,1,8-2,16.17,16.17,0,0,1,8,2,17,17,0,0,1,5.64,5.36,26.24,26.24,0,0,1,3.1,7.35c0,.18.1.37.14.55a32.21,32.21,0,0,1,.85,7.76,27.45,27.45,0,0,1-.85,6.48c0,.19-.09.37-.14.55A25.46,25.46,0,0,1,593.44,128.32Z"/><path class="cls-2" d="M399.35,87.52A39.72,39.72,0,0,0,392,75a29.56,29.56,0,0,0-21.58-9.59,35.87,35.87,0,0,0-13.82,2.68A38,38,0,0,0,346,75V49a12.76,12.76,0,0,0-1.16-5.66,15.34,15.34,0,0,0-2.51-3.65,9.65,9.65,0,0,0-2.66-2.14,2.33,2.33,0,0,1-1.06-.5,2.43,2.43,0,0,1-.6-1.37c-1.17-6.34-3-7.38-7.33-9.5s-5.84-14.92-5.84-14.92V36s0,10.37,0,23.35c0,20.66,0,47.91.13,50.42.43,7,2.69,15.94,4.1,18.76,2,4.37,5.36,9.59,10.71,13,7.9,4.94,17.64,6.21,23.14,6.21a49.71,49.71,0,0,0,18.9-4.09A29,29,0,0,0,392,136.32a39,39,0,0,0,7.34-12.41,53.67,53.67,0,0,0,2.82-18.19A53.69,53.69,0,0,0,399.35,87.52Zm-18.48,18.34a30.88,30.88,0,0,1-.85,7.76,26.32,26.32,0,0,1-3.24,7.89,17,17,0,0,1-5.64,5.36,14.23,14.23,0,0,1-8,2.12,15.22,15.22,0,0,1-8-2.12,16.94,16.94,0,0,1-5.64-5.36,26.59,26.59,0,0,1-3.25-7.89,32.76,32.76,0,0,1-.84-7.76,27.92,27.92,0,0,1,.84-6.49,25.9,25.9,0,0,1,3.25-7.76,18.94,18.94,0,0,1,5.64-5.5,16.56,16.56,0,0,1,8-2,15.43,15.43,0,0,1,8,2,19.06,19.06,0,0,1,5.64,5.5A25.63,25.63,0,0,1,380,99.37a24.62,24.62,0,0,1,.85,5.5Z"/><path class="cls-2" d="M320.51,11.27V36s0,10.37,0,23.35c0,2.8,0,11.47,0,14.43-5.47-7-8.43-9.23-17.38-11.42a40.2,40.2,0,0,0-10.58-.62c-.79-17.63,13.94-24.45,14.22-24.72a2.43,2.43,0,0,0,.6-1.37c1.17-6.34,3-7.38,7.33-9.5S320.51,11.27,320.51,11.27Z"/><path class="cls-3" d="M324.87,36.51c0,2.16,0,11.52,0,22.88h0Z"/></svg>